<mxfile host="app.diagrams.net" agent="Mozilla/5.0 (Windows NT 10.0; Win64; x64) AppleWebKit/537.36 (KHTML, like Gecko) Chrome/133.0.0.0 Safari/537.36 Edg/133.0.0.0" version="26.0.16">
  <diagram name="Page-1" id="PeVcK4OMLYsoqQbRp7si">
    <mxGraphModel dx="3785" dy="2650" grid="0" gridSize="10" guides="1" tooltips="1" connect="0" arrows="0" fold="1" page="0" pageScale="1" pageWidth="827" pageHeight="1169" math="0" shadow="0">
      <root>
        <mxCell id="0" />
        <mxCell id="1" parent="0" />
        <mxCell id="AWEW7dulBsZxIiq0QHkI-4" value="" style="whiteSpace=wrap;html=1;aspect=fixed;strokeWidth=4;movable=1;resizable=1;rotatable=1;deletable=1;editable=1;locked=0;connectable=1;fillColor=none;" vertex="1" parent="1">
          <mxGeometry x="1380" y="229" width="1440" height="810" as="geometry" />
        </mxCell>
        <mxCell id="AWEW7dulBsZxIiq0QHkI-28" value="" style="rounded=0;whiteSpace=wrap;html=1;strokeColor=none;fillColor=light-dark(#f6ede2, #EDEDED);fontColor=light-dark(#6b7d8d, #ededed);" vertex="1" parent="1">
          <mxGeometry x="1498" y="273" width="1190" height="655" as="geometry" />
        </mxCell>
        <mxCell id="AWEW7dulBsZxIiq0QHkI-64" value="" style="group;flipH=1;movable=0;resizable=0;rotatable=0;deletable=0;editable=0;locked=1;connectable=0;" vertex="1" connectable="0" parent="1">
          <mxGeometry x="769" y="1080" width="1094.9747468305832" height="1062" as="geometry" />
        </mxCell>
        <mxCell id="AWEW7dulBsZxIiq0QHkI-65" value="" style="shape=image;verticalLabelPosition=bottom;labelBackgroundColor=default;verticalAlign=top;aspect=fixed;imageAspect=0;image=https://img.pixers.pics/pho_wat(s3:700/FO/20/03/20/68/700_FO20032068_e8766cf46f1d0bb9a5d6d1d7d15e512b.jpg,700,700,cms:2018/10/5bd1b6b8d04b8_220x50-watermark.png,over,480,650,jpg)/papiers-peints-seamless-damier-noir-et-blanc-texture.jpg.jpg;rotation=-45;opacity=25;" vertex="1" parent="AWEW7dulBsZxIiq0QHkI-64">
          <mxGeometry x="144.97474683058317" y="180" width="700" height="700" as="geometry" />
        </mxCell>
        <mxCell id="AWEW7dulBsZxIiq0QHkI-66" value="" style="rounded=0;whiteSpace=wrap;html=1;strokeColor=none;" vertex="1" parent="AWEW7dulBsZxIiq0QHkI-64">
          <mxGeometry x="159.97474683058317" width="544" height="124" as="geometry" />
        </mxCell>
        <mxCell id="AWEW7dulBsZxIiq0QHkI-67" value="" style="rounded=0;whiteSpace=wrap;html=1;strokeColor=none;" vertex="1" parent="AWEW7dulBsZxIiq0QHkI-64">
          <mxGeometry x="550.9747468305832" y="26" width="544" height="980" as="geometry" />
        </mxCell>
        <mxCell id="AWEW7dulBsZxIiq0QHkI-68" value="" style="rounded=0;whiteSpace=wrap;html=1;strokeColor=none;" vertex="1" parent="AWEW7dulBsZxIiq0QHkI-64">
          <mxGeometry x="149.97474683058317" y="938" width="544" height="124" as="geometry" />
        </mxCell>
        <mxCell id="AWEW7dulBsZxIiq0QHkI-63" value="" style="group;movable=0;resizable=0;rotatable=0;deletable=0;editable=0;locked=1;connectable=0;" vertex="1" connectable="0" parent="1">
          <mxGeometry x="-661" y="1080" width="1094.9747468305832" height="1062" as="geometry" />
        </mxCell>
        <mxCell id="AWEW7dulBsZxIiq0QHkI-58" value="" style="shape=image;verticalLabelPosition=bottom;labelBackgroundColor=default;verticalAlign=top;aspect=fixed;imageAspect=0;image=https://img.pixers.pics/pho_wat(s3:700/FO/20/03/20/68/700_FO20032068_e8766cf46f1d0bb9a5d6d1d7d15e512b.jpg,700,700,cms:2018/10/5bd1b6b8d04b8_220x50-watermark.png,over,480,650,jpg)/papiers-peints-seamless-damier-noir-et-blanc-texture.jpg.jpg;rotation=-45;opacity=25;" vertex="1" parent="AWEW7dulBsZxIiq0QHkI-63">
          <mxGeometry x="250" y="180" width="700" height="700" as="geometry" />
        </mxCell>
        <mxCell id="AWEW7dulBsZxIiq0QHkI-60" value="" style="rounded=0;whiteSpace=wrap;html=1;strokeColor=none;" vertex="1" parent="AWEW7dulBsZxIiq0QHkI-63">
          <mxGeometry x="391" width="544" height="124" as="geometry" />
        </mxCell>
        <mxCell id="AWEW7dulBsZxIiq0QHkI-61" value="" style="rounded=0;whiteSpace=wrap;html=1;strokeColor=none;" vertex="1" parent="AWEW7dulBsZxIiq0QHkI-63">
          <mxGeometry y="26" width="544" height="980" as="geometry" />
        </mxCell>
        <mxCell id="AWEW7dulBsZxIiq0QHkI-62" value="" style="rounded=0;whiteSpace=wrap;html=1;strokeColor=none;" vertex="1" parent="AWEW7dulBsZxIiq0QHkI-63">
          <mxGeometry x="401" y="938" width="544" height="124" as="geometry" />
        </mxCell>
        <mxCell id="AWEW7dulBsZxIiq0QHkI-1" value="" style="whiteSpace=wrap;html=1;aspect=fixed;strokeWidth=4;movable=0;resizable=0;rotatable=0;deletable=0;editable=0;locked=1;connectable=0;fillColor=none;" vertex="1" parent="1">
          <mxGeometry x="-117" y="235" width="1440" height="810" as="geometry" />
        </mxCell>
        <mxCell id="AWEW7dulBsZxIiq0QHkI-7" value="Header" style="swimlane;whiteSpace=wrap;html=1;fillColor=#f8cecc;strokeColor=#b85450;" vertex="1" parent="1">
          <mxGeometry x="-114.5" y="238" width="1435" height="171" as="geometry" />
        </mxCell>
        <mxCell id="AWEW7dulBsZxIiq0QHkI-12" value="Class = topmenu" style="swimlane;whiteSpace=wrap;html=1;fillColor=#dae8fc;strokeColor=#6c8ebf;" vertex="1" parent="AWEW7dulBsZxIiq0QHkI-7">
          <mxGeometry x="136" y="29" width="1135" height="130" as="geometry" />
        </mxCell>
        <mxCell id="AWEW7dulBsZxIiq0QHkI-5" value="Logo : Landes distantes" style="rounded=0;whiteSpace=wrap;html=1;fontSize=19;" vertex="1" parent="AWEW7dulBsZxIiq0QHkI-12">
          <mxGeometry x="3" y="25" width="231" height="90" as="geometry" />
        </mxCell>
        <mxCell id="AWEW7dulBsZxIiq0QHkI-8" value="Navbar" style="swimlane;whiteSpace=wrap;html=1;fillColor=#d5e8d4;strokeColor=#82b366;" vertex="1" parent="AWEW7dulBsZxIiq0QHkI-12">
          <mxGeometry x="234" y="29" width="901" height="90" as="geometry" />
        </mxCell>
        <mxCell id="AWEW7dulBsZxIiq0QHkI-9" value="Kovenwald" style="rounded=0;whiteSpace=wrap;html=1;fontSize=19;" vertex="1" parent="AWEW7dulBsZxIiq0QHkI-8">
          <mxGeometry x="59" y="28" width="231" height="47" as="geometry" />
        </mxCell>
        <mxCell id="AWEW7dulBsZxIiq0QHkI-10" value="New Dawn" style="rounded=0;whiteSpace=wrap;html=1;fontSize=19;" vertex="1" parent="AWEW7dulBsZxIiq0QHkI-8">
          <mxGeometry x="325" y="28" width="231" height="47" as="geometry" />
        </mxCell>
        <mxCell id="AWEW7dulBsZxIiq0QHkI-11" value="Ferdelis" style="rounded=0;whiteSpace=wrap;html=1;fontSize=19;" vertex="1" parent="AWEW7dulBsZxIiq0QHkI-8">
          <mxGeometry x="591" y="28" width="231" height="46" as="geometry" />
        </mxCell>
        <mxCell id="AWEW7dulBsZxIiq0QHkI-13" value="80 %" style="endArrow=classic;startArrow=classic;html=1;rounded=0;" edge="1" parent="1">
          <mxGeometry width="50" height="50" relative="1" as="geometry">
            <mxPoint x="30" y="207" as="sourcePoint" />
            <mxPoint x="1155" y="207" as="targetPoint" />
          </mxGeometry>
        </mxCell>
        <mxCell id="AWEW7dulBsZxIiq0QHkI-14" value="Code couleur :&amp;nbsp;" style="text;html=1;align=center;verticalAlign=middle;whiteSpace=wrap;rounded=0;fontSize=24;fontStyle=1" vertex="1" parent="1">
          <mxGeometry x="-143" y="-77" width="200" height="30" as="geometry" />
        </mxCell>
        <mxCell id="AWEW7dulBsZxIiq0QHkI-24" value="" style="shape=step;perimeter=stepPerimeter;whiteSpace=wrap;html=1;fixedSize=1;rotation=90;strokeColor=none;fillColor=light-dark(#9e635c, #ededed);" vertex="1" parent="1">
          <mxGeometry x="1498" y="279" width="120" height="80" as="geometry" />
        </mxCell>
        <mxCell id="AWEW7dulBsZxIiq0QHkI-22" value="&lt;font style=&quot;font-size: 19px;&quot;&gt;KOVENWALD&lt;/font&gt;" style="rounded=1;whiteSpace=wrap;html=1;strokeColor=none;fillColor=light-dark(#9e635c, #ededed);arcSize=20;fontColor=light-dark(#0d0d0d, #ededed);verticalAlign=bottom;spacingBottom=4;" vertex="1" parent="1">
          <mxGeometry x="2002" y="254" width="176" height="62" as="geometry" />
        </mxCell>
        <mxCell id="AWEW7dulBsZxIiq0QHkI-20" value="New dawn" style="rounded=1;whiteSpace=wrap;html=1;strokeColor=none;fillColor=light-dark(#6d3b33, #ededed);arcSize=22;fontColor=light-dark(#f6ede2, #ededed);" vertex="1" parent="1">
          <mxGeometry x="2225" y="268" width="176" height="34" as="geometry" />
        </mxCell>
        <mxCell id="AWEW7dulBsZxIiq0QHkI-26" value="Ferdelis" style="rounded=1;whiteSpace=wrap;html=1;strokeColor=none;fillColor=light-dark(#6d3b33, #ededed);arcSize=22;fontColor=light-dark(#f6ede2, #ededed);" vertex="1" parent="1">
          <mxGeometry x="2448" y="268" width="176" height="34" as="geometry" />
        </mxCell>
        <mxCell id="AWEW7dulBsZxIiq0QHkI-19" value="" style="rounded=0;whiteSpace=wrap;html=1;strokeColor=none;fillColor=light-dark(#6d3b33, #ededed);fontColor=light-dark(#6d3b33, #ededed);" vertex="1" parent="1">
          <mxGeometry x="1498" y="229" width="1190" height="50" as="geometry" />
        </mxCell>
        <mxCell id="AWEW7dulBsZxIiq0QHkI-23" value="&lt;font&gt;L&lt;/font&gt;ANDES &lt;font&gt;D&lt;/font&gt;ISTANTES" style="text;html=1;align=center;verticalAlign=middle;whiteSpace=wrap;rounded=0;fontColor=light-dark(#f6ede2, #ededed);fontFamily=Times New Roman;fontSize=33;fontStyle=4" vertex="1" parent="1">
          <mxGeometry x="1517" y="215" width="397" height="72" as="geometry" />
        </mxCell>
        <mxCell id="AWEW7dulBsZxIiq0QHkI-27" value="" style="rounded=0;whiteSpace=wrap;html=1;strokeColor=none;fillColor=light-dark(#0d0d0d, #ededed);" vertex="1" parent="1">
          <mxGeometry x="1498" y="922" width="1190" height="118" as="geometry" />
        </mxCell>
        <mxCell id="AWEW7dulBsZxIiq0QHkI-29" value="" style="whiteSpace=wrap;html=1;aspect=fixed;strokeWidth=4;movable=0;resizable=0;rotatable=0;deletable=0;editable=0;locked=1;connectable=0;fillColor=none;" vertex="1" parent="1">
          <mxGeometry x="-117" y="1207" width="1440" height="810" as="geometry" />
        </mxCell>
        <mxCell id="AWEW7dulBsZxIiq0QHkI-30" value="" style="rounded=0;whiteSpace=wrap;html=1;strokeColor=none;fillColor=light-dark(#EDEDED,#EDEDED);" vertex="1" parent="1">
          <mxGeometry x="1" y="1251" width="1190" height="655" as="geometry" />
        </mxCell>
        <mxCell id="AWEW7dulBsZxIiq0QHkI-31" value="" style="shape=step;perimeter=stepPerimeter;whiteSpace=wrap;html=1;fixedSize=1;rotation=90;strokeColor=none;fillColor=light-dark(#fa8646, #ededed);" vertex="1" parent="1">
          <mxGeometry x="1" y="1257" width="120" height="80" as="geometry" />
        </mxCell>
        <mxCell id="AWEW7dulBsZxIiq0QHkI-33" value="New dawn" style="rounded=1;whiteSpace=wrap;html=1;strokeColor=none;fillColor=light-dark(#0d0d0d, #ededed);arcSize=22;fontColor=light-dark(#fa8646, #ededed);" vertex="1" parent="1">
          <mxGeometry x="728" y="1246" width="176" height="34" as="geometry" />
        </mxCell>
        <mxCell id="AWEW7dulBsZxIiq0QHkI-34" value="Ferdelis" style="rounded=1;whiteSpace=wrap;html=1;strokeColor=none;fillColor=light-dark(#0d0d0d, #ededed);arcSize=22;fontColor=light-dark(#fa8646, #ededed);" vertex="1" parent="1">
          <mxGeometry x="951" y="1246" width="176" height="34" as="geometry" />
        </mxCell>
        <mxCell id="AWEW7dulBsZxIiq0QHkI-35" value="" style="rounded=0;whiteSpace=wrap;html=1;strokeColor=none;fillColor=light-dark(#0d0d0d, #ededed);" vertex="1" parent="1">
          <mxGeometry x="1" y="1207" width="1190" height="50" as="geometry" />
        </mxCell>
        <mxCell id="AWEW7dulBsZxIiq0QHkI-36" value="&lt;font&gt;L&lt;/font&gt;ANDES &lt;font&gt;D&lt;/font&gt;ISTANTES" style="text;html=1;align=center;verticalAlign=middle;whiteSpace=wrap;rounded=0;fontColor=light-dark(#d0d1d5, #ededed);fontFamily=Times New Roman;fontSize=33;fontStyle=4" vertex="1" parent="1">
          <mxGeometry x="20" y="1193" width="397" height="72" as="geometry" />
        </mxCell>
        <mxCell id="AWEW7dulBsZxIiq0QHkI-37" value="" style="rounded=0;whiteSpace=wrap;html=1;strokeColor=none;fillColor=light-dark(#0d0d0d, #ededed);" vertex="1" parent="1">
          <mxGeometry x="1" y="1900" width="1190" height="118" as="geometry" />
        </mxCell>
        <mxCell id="AWEW7dulBsZxIiq0QHkI-38" value="Kovenwald" style="rounded=1;whiteSpace=wrap;html=1;strokeColor=none;fillColor=light-dark(#0d0d0d, #ededed);arcSize=22;fontColor=light-dark(#fa8646, #ededed);" vertex="1" parent="1">
          <mxGeometry x="509" y="1246" width="176" height="34" as="geometry" />
        </mxCell>
        <mxCell id="AWEW7dulBsZxIiq0QHkI-71" value="Image avec un masque qui s&#39;incruste" style="ellipse;shape=cloud;whiteSpace=wrap;html=1;strokeColor=none;fontSize=21;spacing=50;" vertex="1" parent="1">
          <mxGeometry x="673.5" y="1310" width="434" height="552" as="geometry" />
        </mxCell>
        <mxCell id="AWEW7dulBsZxIiq0QHkI-72" value="&lt;h1 style=&quot;margin-top: 0px;&quot;&gt;Heading&lt;/h1&gt;&lt;p&gt;Lorem ipsum dolor sit amet, consectetur adipisicing elit, sed do eiusmod tempor incididunt ut labore et dolore magna aliqua.&amp;nbsp;&lt;span style=&quot;background-color: transparent; color: light-dark(rgb(0, 0, 0), rgb(255, 255, 255));&quot;&gt;Lorem ipsum dolor sit amet, consectetur adipisicing elit, sed do eiusmod tempor incididunt ut labore et dolore magna aliqua.&lt;/span&gt;&lt;span style=&quot;background-color: transparent; color: light-dark(rgb(0, 0, 0), rgb(255, 255, 255));&quot;&gt;Lorem ipsum dolor sit amet, consectetur adipisicing elit, sed do eiusmod tempor incididunt ut labore et dolore magna aliqua.&lt;/span&gt;&lt;span style=&quot;background-color: transparent; color: light-dark(rgb(0, 0, 0), rgb(255, 255, 255));&quot;&gt;Lorem ipsum dolor sit amet, consectetur adipisicing elit, sed do eiusmod tempor incididunt ut labore et dolore magna aliqua.&lt;/span&gt;&lt;span style=&quot;background-color: transparent; color: light-dark(rgb(0, 0, 0), rgb(255, 255, 255));&quot;&gt;Lorem ipsum dolor sit amet, consectetur adipisicing elit, sed do eiusmod tempor incididunt ut labore et dolore magna aliqua.&lt;/span&gt;&lt;span style=&quot;background-color: transparent; color: light-dark(rgb(0, 0, 0), rgb(255, 255, 255));&quot;&gt;Lorem ipsum dolor sit amet, consectetur adipisicing elit, sed do eiusmod tempor incididunt ut labore et dolore magna aliqua.&lt;/span&gt;&lt;span style=&quot;background-color: transparent; color: light-dark(rgb(0, 0, 0), rgb(255, 255, 255));&quot;&gt;Lorem ipsum dolor sit amet, consectetur adipisicing elit, sed do eiusmod tempor incididunt ut labore et dolore magna aliqua.&lt;/span&gt;&lt;span style=&quot;background-color: transparent; color: light-dark(rgb(0, 0, 0), rgb(255, 255, 255));&quot;&gt;Lorem ipsum dolor sit amet, consectetur adipisicing elit, sed do eiusmod tempor incididunt ut labore et dolore magna aliqua.&lt;/span&gt;&lt;span style=&quot;background-color: transparent; color: light-dark(rgb(0, 0, 0), rgb(255, 255, 255));&quot;&gt;Lorem ipsum dolor sit amet, consectetur adipisicing elit, sed do eiusmod tempor incididunt ut labore et dolore magna aliqua.&lt;/span&gt;&lt;span style=&quot;background-color: transparent; color: light-dark(rgb(0, 0, 0), rgb(255, 255, 255));&quot;&gt;Lorem ipsum dolor sit amet, consectetur adipisicing elit, sed do eiusmod tempor incididunt ut labore et dolore magna aliqua.&lt;/span&gt;&lt;/p&gt;" style="text;html=1;whiteSpace=wrap;overflow=hidden;rounded=0;" vertex="1" parent="1">
          <mxGeometry x="146" y="1353" width="531" height="265" as="geometry" />
        </mxCell>
        <mxCell id="AWEW7dulBsZxIiq0QHkI-73" value="&lt;h1 style=&quot;margin-top: 0px;&quot;&gt;&lt;br&gt;&lt;/h1&gt;&lt;p&gt;Lorem ipsum dolor sit amet, consectetur adipisicing elit, sed do eiusmod tempor incididunt ut labore et dolore magna aliqua.&amp;nbsp;&lt;span style=&quot;background-color: transparent; color: light-dark(rgb(0, 0, 0), rgb(255, 255, 255));&quot;&gt;Lorem ipsum dolor sit amet, consectetur adipisicing elit, sed do eiusmod tempor incididunt ut labore et dolore magna aliqua.&lt;/span&gt;&lt;span style=&quot;background-color: transparent; color: light-dark(rgb(0, 0, 0), rgb(255, 255, 255));&quot;&gt;Lorem ipsum dolor sit amet, consectetur adipisicing elit, sed do eiusmod tempor incididunt ut labore et dolore magna aliqua.&lt;/span&gt;&lt;span style=&quot;background-color: transparent; color: light-dark(rgb(0, 0, 0), rgb(255, 255, 255));&quot;&gt;Lorem ipsum dolor sit amet, consectetur adipisicing elit, sed do eiusmod tempor incididunt ut labore et dolore magna aliqua.&lt;/span&gt;&lt;span style=&quot;background-color: transparent; color: light-dark(rgb(0, 0, 0), rgb(255, 255, 255));&quot;&gt;Lorem ipsum dolor sit amet, consectetur adipisicing elit, sed do eiusmod tempor incididunt ut labore et dolore magna aliqua.&lt;/span&gt;&lt;span style=&quot;background-color: transparent; color: light-dark(rgb(0, 0, 0), rgb(255, 255, 255));&quot;&gt;Lorem ipsum dolor sit amet, consectetur adipisicing elit, sed do eiusmod tempor incididunt ut labore et dolore magna aliqua.&lt;/span&gt;&lt;span style=&quot;background-color: transparent; color: light-dark(rgb(0, 0, 0), rgb(255, 255, 255));&quot;&gt;Lorem ipsum dolor sit amet, consectetur adipisicing elit, sed do eiusmod tempor incididunt ut labore et dolore magna aliqua.&lt;/span&gt;&lt;span style=&quot;background-color: transparent; color: light-dark(rgb(0, 0, 0), rgb(255, 255, 255));&quot;&gt;Lorem ipsum dolor sit amet, consectetur adipisicing elit, sed do eiusmod tempor incididunt ut labore et dolore magna aliqua.&lt;/span&gt;&lt;span style=&quot;background-color: transparent; color: light-dark(rgb(0, 0, 0), rgb(255, 255, 255));&quot;&gt;Lorem ipsum dolor sit amet, consectetur adipisicing elit, sed do eiusmod tempor incididunt ut labore et dolore magna aliqua.&lt;/span&gt;&lt;span style=&quot;background-color: transparent; color: light-dark(rgb(0, 0, 0), rgb(255, 255, 255));&quot;&gt;Lorem ipsum dolor sit amet, consectetur adipisicing elit, sed do eiusmod tempor incididunt ut labore et dolore magna aliqua.&lt;/span&gt;&lt;/p&gt;" style="text;html=1;whiteSpace=wrap;overflow=hidden;rounded=0;" vertex="1" parent="1">
          <mxGeometry x="146" y="1574" width="531" height="263" as="geometry" />
        </mxCell>
        <mxCell id="AWEW7dulBsZxIiq0QHkI-86" value="" style="group;fillColor=none;" vertex="1" connectable="0" parent="1">
          <mxGeometry x="1866" y="603" width="499.9" height="109" as="geometry" />
        </mxCell>
        <mxCell id="AWEW7dulBsZxIiq0QHkI-76" value="" style="group;fillColor=none;" vertex="1" connectable="0" parent="AWEW7dulBsZxIiq0QHkI-86">
          <mxGeometry width="92.71328320802006" height="107.12068965517241" as="geometry" />
        </mxCell>
        <mxCell id="AWEW7dulBsZxIiq0QHkI-75" value="Fix" style="rounded=1;whiteSpace=wrap;html=1;strokeWidth=1;strokeColor=light-dark(#949494, #ededed);fillColor=light-dark(#6d3b33, #EDEDED);fontColor=light-dark(#f6ede2, #ededed);" vertex="1" parent="AWEW7dulBsZxIiq0QHkI-76">
          <mxGeometry width="87.70175438596492" height="101.48275862068965" as="geometry" />
        </mxCell>
        <mxCell id="AWEW7dulBsZxIiq0QHkI-77" value="" style="group;fillColor=none;fontColor=light-dark(#f6ede2, #ededed);" vertex="1" connectable="0" parent="AWEW7dulBsZxIiq0QHkI-86">
          <mxGeometry x="139.06992481203008" y="0.6264367816091954" width="92.71328320802006" height="107.12068965517241" as="geometry" />
        </mxCell>
        <mxCell id="AWEW7dulBsZxIiq0QHkI-78" value="" style="rounded=1;whiteSpace=wrap;html=1;strokeWidth=5;strokeColor=none;fillColor=#949494;" vertex="1" parent="AWEW7dulBsZxIiq0QHkI-77">
          <mxGeometry x="5.011528822055138" y="5.637931034482758" width="87.70175438596492" height="101.48275862068965" as="geometry" />
        </mxCell>
        <mxCell id="AWEW7dulBsZxIiq0QHkI-79" value="Hover" style="rounded=1;whiteSpace=wrap;html=1;strokeWidth=1;strokeColor=light-dark(#949494, #ededed);fillColor=light-dark(#6b7d8d, #ededed);fontColor=light-dark(#f6ede2, #ededed);" vertex="1" parent="AWEW7dulBsZxIiq0QHkI-77">
          <mxGeometry width="87.7" height="101.48" as="geometry" />
        </mxCell>
        <mxCell id="AWEW7dulBsZxIiq0QHkI-80" value="" style="group;fillColor=none;" vertex="1" connectable="0" parent="AWEW7dulBsZxIiq0QHkI-86">
          <mxGeometry x="268.1167919799499" y="1.2528735632183907" width="92.71328320802006" height="107.12068965517241" as="geometry" />
        </mxCell>
        <mxCell id="AWEW7dulBsZxIiq0QHkI-81" value="" style="rounded=1;whiteSpace=wrap;html=1;strokeWidth=5;strokeColor=none;fillColor=#949494;" vertex="1" parent="AWEW7dulBsZxIiq0QHkI-80">
          <mxGeometry x="5.011528822055138" y="5.637931034482758" width="87.70175438596492" height="101.48275862068965" as="geometry" />
        </mxCell>
        <mxCell id="AWEW7dulBsZxIiq0QHkI-82" value="90 X 100 PX" style="rounded=1;whiteSpace=wrap;html=1;strokeWidth=1;strokeColor=light-dark(#949494, #ededed);" vertex="1" parent="AWEW7dulBsZxIiq0QHkI-80">
          <mxGeometry width="87.70175438596492" height="101.48275862068965" as="geometry" />
        </mxCell>
        <mxCell id="AWEW7dulBsZxIiq0QHkI-83" value="" style="group;fillColor=none;" vertex="1" connectable="0" parent="AWEW7dulBsZxIiq0QHkI-86">
          <mxGeometry x="407.18671679197996" y="1.879310344827586" width="92.71328320802006" height="107.12068965517241" as="geometry" />
        </mxCell>
        <mxCell id="AWEW7dulBsZxIiq0QHkI-84" value="" style="rounded=1;whiteSpace=wrap;html=1;strokeWidth=5;strokeColor=none;fillColor=#949494;" vertex="1" parent="AWEW7dulBsZxIiq0QHkI-83">
          <mxGeometry x="5.011528822055138" y="5.637931034482758" width="87.70175438596492" height="101.48275862068965" as="geometry" />
        </mxCell>
        <mxCell id="AWEW7dulBsZxIiq0QHkI-85" value="Pictogram" style="rounded=1;whiteSpace=wrap;html=1;strokeWidth=1;strokeColor=light-dark(#949494, #ededed);" vertex="1" parent="AWEW7dulBsZxIiq0QHkI-83">
          <mxGeometry width="87.70175438596492" height="101.48275862068965" as="geometry" />
        </mxCell>
        <mxCell id="AWEW7dulBsZxIiq0QHkI-87" value="&lt;div&gt;Lorem ipsum odor amet, consectetuer adipiscing elit. Id purus morbi volutpat facilisi conubia mattis vel pellentesque. Hendrerit mollis ex eu sapien praesent adipiscing. Nisi ridiculus proin montes porttitor, mattis magnis ut fringilla. Lectus tortor consequat ut inceptos, id facilisis maximus. Orci vestibulum non torquent aliquet class lacus convallis potenti a. Per torquent viverra sem vivamus lorem inceptos.&lt;/div&gt;&lt;div&gt;&lt;br&gt;&lt;/div&gt;&lt;div&gt;Natoque sed class mattis, posuere praesent commodo facilisis. Aliquam amet risus class feugiat quisque eget; hac venenatis himenaeos. Quisque quam gravida parturient primis rutrum neque cubilia. Dis nostra est felis euismod eros nunc convallis. Vestibulum ornare rhoncus donec semper consectetur elit nam habitasse. Ultricies porttitor molestie curabitur lacinia id sollicitudin rhoncus euismod auctor.&lt;/div&gt;&lt;div&gt;&lt;br&gt;&lt;/div&gt;&lt;div&gt;&lt;br&gt;&lt;/div&gt;" style="text;html=1;align=center;verticalAlign=middle;whiteSpace=wrap;rounded=0;fillColor=light-dark(#f6ede2, #EDEDED);" vertex="1" parent="1">
          <mxGeometry x="1633.95" y="487" width="964" height="99" as="geometry" />
        </mxCell>
        <mxCell id="AWEW7dulBsZxIiq0QHkI-88" value="" style="endArrow=classic;html=1;rounded=0;" edge="1" parent="1" source="AWEW7dulBsZxIiq0QHkI-4" target="AWEW7dulBsZxIiq0QHkI-89">
          <mxGeometry width="50" height="50" relative="1" as="geometry">
            <mxPoint x="2922" y="413" as="sourcePoint" />
            <mxPoint x="2963" y="261" as="targetPoint" />
          </mxGeometry>
        </mxCell>
        <mxCell id="AWEW7dulBsZxIiq0QHkI-89" value="Image dans le thème ?&amp;nbsp;&lt;div&gt;&lt;br&gt;&lt;/div&gt;" style="text;html=1;align=center;verticalAlign=middle;whiteSpace=wrap;rounded=0;strokeColor=default;" vertex="1" parent="1">
          <mxGeometry x="2987" y="235" width="202" height="139" as="geometry" />
        </mxCell>
        <mxCell id="AWEW7dulBsZxIiq0QHkI-91" value="" style="shape=image;verticalLabelPosition=bottom;labelBackgroundColor=default;verticalAlign=top;aspect=fixed;imageAspect=0;image=https://www.color-hex.com/palettes/1056149.png;" vertex="1" parent="1">
          <mxGeometry x="86.00117647058829" y="-485.99529411764706" width="900" height="600" as="geometry" />
        </mxCell>
        <mxCell id="AWEW7dulBsZxIiq0QHkI-92" value="Title H1" style="text;html=1;align=center;verticalAlign=middle;whiteSpace=wrap;rounded=0;fontSize=90;fontColor=light-dark(#6b7d8d, #ededed);" vertex="1" parent="1">
          <mxGeometry x="1932" y="358" width="349" height="113" as="geometry" />
        </mxCell>
      </root>
    </mxGraphModel>
  </diagram>
</mxfile>
